# xmcd CD database file
#
# Track frame offsets:
#	150
#	15085
#	30542
#	42295
#	56742
#	72652
#	86745
#	104092
#	123700
#	142445
#
# Disc length: 2089 seconds
#
# Revision: 0
# Processed by: cddbd v1.5.2PL0 Copyright (c) Steve Scherf et al.
# Submitted via: CdAid (MTCDDB.DLL V2003.12.21)
#
DISCID=9608270a
DTITLE=Various Artist - O Som da Bahia Volume 1
DYEAR=1995
DGENRE=Folk
TTITLE0=Dança da Cordinha
TTITLE1=Vem Meu Amor
TTITLE2=Nossa Gente ("Avisa Lá")
TTITLE3=Rapunzel
TTITLE4=Beijo na Boca
TTITLE5=Prefixo de Verão
TTITLE6=Crença e Fé
TTITLE7=Baianidade Nagô
TTITLE8=Swing da Cor
TTITLE9=Total
EXTD=ID3G:  80 YEAR: 1995
EXTT0=
EXTT1=
EXTT2=
EXTT3=
EXTT4=
EXTT5=
EXTT6=
EXTT7=
EXTT8=
EXTT9=
PLAYORDER=
